<svg xmlns="http://www.w3.org/2000/svg" xmlns:xlink="http://www.w3.org/1999/xlink" preserveAspectRatio="xMidYMid" width="299.983" height="348.328" viewBox="0 0 242 281">
  <defs>
    <style>
      .cls-1 {
        fill: #040000;
        fill-rule: evenodd;
      }
    </style>
  </defs>
  <path d="M221.917,102.814 L221.917,82.903 L221.916,82.903 C221.914,87.763 221.909,102.814 221.917,102.814 C221.914,102.814 221.907,102.814 221.907,102.814 L159.963,102.785 C148.156,102.779 138.573,93.251 138.523,81.466 L138.260,20.091 L158.013,20.007 L158.006,20.000 L127.901,20.000 L20.039,20.000 L20.039,261.000 L221.917,261.000 L221.917,244.218 L241.955,225.011 L241.955,261.000 C241.955,272.046 232.983,281.000 221.917,281.000 L20.039,281.000 C8.973,281.000 0.001,272.046 0.001,261.000 L0.001,20.000 C0.001,8.954 8.973,0.000 20.039,0.000 L158.006,0.000 C163.271,0.000 168.326,2.069 172.075,5.759 L235.986,68.662 C239.805,72.421 241.955,77.550 241.955,82.903 L241.955,139.542 L221.917,120.335 L221.917,102.814 ZM159.718,21.685 L159.973,81.375 L220.392,81.403 L159.718,21.685 ZM174.156,120.725 C176.818,119.668 179.877,120.256 181.913,122.207 L239.915,177.804 C241.239,179.069 241.998,180.831 241.998,182.628 C241.998,184.428 241.239,186.181 239.915,187.451 L181.913,243.051 C180.551,244.359 178.732,245.048 176.876,245.048 C175.963,245.048 175.038,244.881 174.156,244.533 C171.497,243.480 169.765,240.989 169.765,238.228 L169.765,208.549 L106.451,208.549 L106.451,156.707 L169.765,156.707 L169.765,127.030 C169.765,124.274 171.497,121.780 174.156,120.725 Z" class="cls-1"/>
</svg>
